<mxfile host="app.diagrams.net" modified="2023-04-03T00:06:21.854Z" agent="Mozilla/5.0 (Windows NT 10.0; Win64; x64) AppleWebKit/537.36 (KHTML, like Gecko) Chrome/111.0.0.0 Safari/537.36" etag="QRVAosEQgPCj8PnMLruF" version="21.1.2" type="device">
  <diagram id="CXjexj8tAmaSMchDLvHp" name="Page-1">
    <mxGraphModel dx="882" dy="596" grid="1" gridSize="10" guides="1" tooltips="1" connect="1" arrows="1" fold="1" page="1" pageScale="1" pageWidth="850" pageHeight="1100" math="0" shadow="0">
      <root>
        <mxCell id="0" />
        <mxCell id="1" parent="0" />
        <mxCell id="lJajhJuv-NKu4HvYBszf-6" style="edgeStyle=orthogonalEdgeStyle;rounded=0;orthogonalLoop=1;jettySize=auto;html=1;exitX=0.5;exitY=0;exitDx=0;exitDy=0;entryX=1;entryY=0.5;entryDx=0;entryDy=0;" edge="1" parent="1" source="5GFA6TsRYwuuwH2ggQvM-1" target="lJajhJuv-NKu4HvYBszf-2">
          <mxGeometry relative="1" as="geometry">
            <Array as="points">
              <mxPoint x="140" y="40" />
              <mxPoint x="640" y="40" />
              <mxPoint x="640" y="230" />
            </Array>
          </mxGeometry>
        </mxCell>
        <mxCell id="lJajhJuv-NKu4HvYBszf-8" style="edgeStyle=orthogonalEdgeStyle;rounded=0;orthogonalLoop=1;jettySize=auto;html=1;exitX=1;exitY=0.5;exitDx=0;exitDy=0;entryX=0;entryY=0.5;entryDx=0;entryDy=0;" edge="1" parent="1" source="5GFA6TsRYwuuwH2ggQvM-1" target="lJajhJuv-NKu4HvYBszf-1">
          <mxGeometry relative="1" as="geometry" />
        </mxCell>
        <mxCell id="5GFA6TsRYwuuwH2ggQvM-1" value="Training data generation" style="rounded=1;whiteSpace=wrap;html=1;" parent="1" vertex="1">
          <mxGeometry x="80" y="200" width="120" height="60" as="geometry" />
        </mxCell>
        <mxCell id="5GFA6TsRYwuuwH2ggQvM-11" value="Metrics" style="rounded=1;whiteSpace=wrap;html=1;" parent="1" vertex="1">
          <mxGeometry x="280" y="80" width="120" height="60" as="geometry" />
        </mxCell>
        <mxCell id="lJajhJuv-NKu4HvYBszf-4" style="edgeStyle=orthogonalEdgeStyle;rounded=0;orthogonalLoop=1;jettySize=auto;html=1;exitX=0.5;exitY=0;exitDx=0;exitDy=0;entryX=0.5;entryY=1;entryDx=0;entryDy=0;" edge="1" parent="1" source="lJajhJuv-NKu4HvYBszf-1" target="5GFA6TsRYwuuwH2ggQvM-11">
          <mxGeometry relative="1" as="geometry" />
        </mxCell>
        <mxCell id="lJajhJuv-NKu4HvYBszf-9" style="edgeStyle=orthogonalEdgeStyle;rounded=0;orthogonalLoop=1;jettySize=auto;html=1;exitX=1;exitY=0.5;exitDx=0;exitDy=0;entryX=0;entryY=0.5;entryDx=0;entryDy=0;" edge="1" parent="1" source="lJajhJuv-NKu4HvYBszf-1" target="lJajhJuv-NKu4HvYBszf-2">
          <mxGeometry relative="1" as="geometry" />
        </mxCell>
        <mxCell id="lJajhJuv-NKu4HvYBszf-1" value="NER trainer" style="rounded=1;whiteSpace=wrap;html=1;" vertex="1" parent="1">
          <mxGeometry x="280" y="200" width="120" height="60" as="geometry" />
        </mxCell>
        <mxCell id="lJajhJuv-NKu4HvYBszf-5" style="edgeStyle=orthogonalEdgeStyle;rounded=0;orthogonalLoop=1;jettySize=auto;html=1;exitX=0.5;exitY=0;exitDx=0;exitDy=0;entryX=1;entryY=0.5;entryDx=0;entryDy=0;" edge="1" parent="1" source="lJajhJuv-NKu4HvYBszf-2" target="5GFA6TsRYwuuwH2ggQvM-11">
          <mxGeometry relative="1" as="geometry" />
        </mxCell>
        <mxCell id="lJajhJuv-NKu4HvYBszf-19" style="edgeStyle=orthogonalEdgeStyle;rounded=0;orthogonalLoop=1;jettySize=auto;html=1;exitX=0.5;exitY=1;exitDx=0;exitDy=0;entryX=0.5;entryY=0;entryDx=0;entryDy=0;" edge="1" parent="1" source="lJajhJuv-NKu4HvYBszf-2" target="lJajhJuv-NKu4HvYBszf-10">
          <mxGeometry relative="1" as="geometry" />
        </mxCell>
        <mxCell id="lJajhJuv-NKu4HvYBszf-2" value="Disambiguation trainer" style="rounded=1;whiteSpace=wrap;html=1;" vertex="1" parent="1">
          <mxGeometry x="480" y="200" width="120" height="60" as="geometry" />
        </mxCell>
        <mxCell id="lJajhJuv-NKu4HvYBszf-3" value="Training data" style="text;html=1;strokeColor=none;fillColor=none;align=center;verticalAlign=middle;whiteSpace=wrap;rounded=0;" vertex="1" parent="1">
          <mxGeometry x="200" y="180" width="80" height="30" as="geometry" />
        </mxCell>
        <mxCell id="lJajhJuv-NKu4HvYBszf-7" value="Training data" style="text;html=1;strokeColor=none;fillColor=none;align=center;verticalAlign=middle;whiteSpace=wrap;rounded=0;" vertex="1" parent="1">
          <mxGeometry x="350" y="10" width="80" height="30" as="geometry" />
        </mxCell>
        <mxCell id="lJajhJuv-NKu4HvYBszf-21" style="edgeStyle=orthogonalEdgeStyle;rounded=0;orthogonalLoop=1;jettySize=auto;html=1;exitX=1;exitY=0.5;exitDx=0;exitDy=0;entryX=0;entryY=0.5;entryDx=0;entryDy=0;" edge="1" parent="1" source="lJajhJuv-NKu4HvYBszf-10" target="lJajhJuv-NKu4HvYBszf-20">
          <mxGeometry relative="1" as="geometry" />
        </mxCell>
        <mxCell id="lJajhJuv-NKu4HvYBszf-10" value="Disambiguator model" style="rounded=1;whiteSpace=wrap;html=1;" vertex="1" parent="1">
          <mxGeometry x="480" y="320" width="120" height="60" as="geometry" />
        </mxCell>
        <mxCell id="lJajhJuv-NKu4HvYBszf-12" style="edgeStyle=orthogonalEdgeStyle;rounded=0;orthogonalLoop=1;jettySize=auto;html=1;exitX=1;exitY=0.5;exitDx=0;exitDy=0;entryX=0;entryY=0.5;entryDx=0;entryDy=0;" edge="1" parent="1" source="lJajhJuv-NKu4HvYBszf-11" target="lJajhJuv-NKu4HvYBszf-10">
          <mxGeometry relative="1" as="geometry" />
        </mxCell>
        <mxCell id="lJajhJuv-NKu4HvYBszf-11" value="Entity recognizer model" style="rounded=1;whiteSpace=wrap;html=1;" vertex="1" parent="1">
          <mxGeometry x="280" y="320" width="120" height="60" as="geometry" />
        </mxCell>
        <mxCell id="lJajhJuv-NKu4HvYBszf-13" value="Recognized &amp;amp; classified entities" style="text;html=1;strokeColor=none;fillColor=none;align=center;verticalAlign=middle;whiteSpace=wrap;rounded=0;" vertex="1" parent="1">
          <mxGeometry x="340" y="290" width="180" height="30" as="geometry" />
        </mxCell>
        <mxCell id="lJajhJuv-NKu4HvYBszf-15" style="edgeStyle=orthogonalEdgeStyle;rounded=0;orthogonalLoop=1;jettySize=auto;html=1;exitX=1;exitY=0.5;exitDx=0;exitDy=0;" edge="1" parent="1" source="lJajhJuv-NKu4HvYBszf-14" target="lJajhJuv-NKu4HvYBszf-11">
          <mxGeometry relative="1" as="geometry" />
        </mxCell>
        <mxCell id="lJajhJuv-NKu4HvYBszf-14" value="Input sentense" style="rounded=1;whiteSpace=wrap;html=1;" vertex="1" parent="1">
          <mxGeometry x="80" y="320" width="120" height="60" as="geometry" />
        </mxCell>
        <mxCell id="lJajhJuv-NKu4HvYBszf-16" value="Perform entity linking" style="text;html=1;strokeColor=none;fillColor=none;align=center;verticalAlign=middle;whiteSpace=wrap;rounded=0;" vertex="1" parent="1">
          <mxGeometry x="190" y="290" width="120" height="30" as="geometry" />
        </mxCell>
        <mxCell id="lJajhJuv-NKu4HvYBszf-20" value="Text with linked entities" style="rounded=1;whiteSpace=wrap;html=1;" vertex="1" parent="1">
          <mxGeometry x="680" y="320" width="120" height="60" as="geometry" />
        </mxCell>
      </root>
    </mxGraphModel>
  </diagram>
</mxfile>
